<?xml version="1.0" encoding="utf-8"?>
<!-- Generator: Adobe Illustrator 16.0.0, SVG Export Plug-In . SVG Version: 6.00 Build 0)  -->
<!DOCTYPE svg PUBLIC "-//W3C//DTD SVG 1.1//EN" "http://www.w3.org/Graphics/SVG/1.1/DTD/svg11.dtd">
<svg version="1.1" id="Layer_1" xmlns="http://www.w3.org/2000/svg" xmlns:xlink="http://www.w3.org/1999/xlink" x="0px" y="0px"
	 width="658.09px" height="139.13px" viewBox="0 0 658.09 139.13" enable-background="new 0 0 658.09 139.13" xml:space="preserve">
<g>
	<path fill="#FEFFFE" d="M51.436,86.957c-25.639,0-44.73-16.205-44.73-37.849c0-21.311,18.536-36.405,44.73-36.405h51.944
		L88.729,32.015H51.436c-14.318,0-21.866,5.883-21.866,17.093c0,11.654,8.103,18.536,21.866,18.536h51.944L88.729,86.957H51.436z"/>
	<path fill="#FEFFFE" d="M212.713,49.774c0,25.972-17.537,38.403-54.387,38.403c-36.738,0-54.164-12.32-54.164-38.403
		c0-25.972,17.315-38.292,54.164-38.292C195.176,11.481,212.713,23.802,212.713,49.774z M127.027,49.774
		c0,15.095,6.66,19.091,31.3,19.091c24.862,0,31.411-3.996,31.411-19.091c0-15.095-6.438-18.979-31.411-18.979
		C133.576,30.794,127.027,34.79,127.027,49.774z"/>
	<path fill="#FEFFFE" d="M330.482,49.774c0,25.972-17.535,38.403-54.385,38.403c-36.739,0-54.165-12.32-54.165-38.403
		c0-25.972,17.314-38.292,54.165-38.292C312.947,11.481,330.482,23.802,330.482,49.774z M244.797,49.774
		c0,15.095,6.659,19.091,31.3,19.091c24.861,0,31.41-3.996,31.41-19.091c0-15.095-6.438-18.979-31.41-18.979
		C251.345,30.794,244.797,34.79,244.797,49.774z"/>
	<path fill="#FEFFFE" d="M364.676,67.755v19.202h-22.865V48.775h65.264c6.217,0,9.99-3.219,9.99-8.436
		c0-5.106-3.885-8.325-9.99-8.325h-65.264l15.428-19.313h47.283c21.533,0,35.406,10.877,35.406,27.748
		c0,16.649-13.652,27.304-35.406,27.304H364.676z"/>
	<path fill="#FEFFFE" d="M474.676,41.561h58.715l-13.318,16.427h-45.396v9.657h63.154l-14.65,19.313h-71.48V12.703h86.02
		l-14.873,19.313h-48.17V41.561z"/>
	<path fill="#FEFFFE" d="M628.516,64.092l22.42,22.864h-30.301L601.988,67.2h-33.631v19.757h-22.863V48.664h65.818
		c8.436,0,12.098-2.442,12.098-7.991c0-5.994-3.885-8.658-12.209-8.658h-65.707l15.316-19.313h48.17
		c23.309,0,37.406,10.1,37.406,27.082C646.387,51.328,639.838,59.763,628.516,64.092z"/>
</g>
<g>
	<path fill="#FEFFFE" d="M20.489,123.085v7.698h-9.166v-15.306h26.163c2.492,0,4.004-1.291,4.004-3.382
		c0-2.046-1.557-3.337-4.004-3.337H11.323l6.185-7.742h18.955c8.632,0,14.194,4.361,14.194,11.124
		c0,6.674-5.473,10.945-14.194,10.945H20.489z"/>
	<path fill="#FEFFFE" d="M55.378,130.783v-29.767h9.21v22.025h23.048l-5.918,7.742H55.378z"/>
	<path fill="#FEFFFE" d="M118.743,101.016h9.166v16.774c0,9.3-6.007,13.482-19.399,13.482c-13.526,0-19.622-4.138-19.622-13.482
		v-16.774h9.21v16.774c0,4.227,2.714,5.74,10.412,5.74c7.608,0,10.234-1.513,10.234-5.74V101.016z"/>
	<path fill="#FEFFFE" d="M174.366,130.783l-4.717-17.264l-7.742,14.417c-1.379,2.492-2.803,3.337-5.518,3.337
		c-2.759,0-4.183-0.845-5.518-3.337l-7.563-14.417l-4.85,17.264h-9.344l7.742-26.118c0.757-2.625,2.67-4.138,5.251-4.138
		c2.136,0,3.826,1.068,4.983,3.115l9.477,17.664l9.522-17.664c1.112-2.047,2.848-3.115,4.983-3.115c2.536,0,4.538,1.602,5.25,4.138
		l7.564,26.118H174.366z"/>
	<path fill="#FEFFFE" d="M187.23,130.783v-18.198h26.431c1.646,0,2.491-0.667,2.491-1.958c0-1.201-0.846-1.869-2.447-1.869H187.23
		l6.318-7.742h19.622c7.431,0,11.702,3.026,11.702,8.187c0,2.759-1.112,5.028-2.98,6.407c2.269,1.379,3.604,3.782,3.604,6.63
		c0,5.74-4.004,8.543-12.146,8.543H187.23z M196.441,119.125v3.916h17.264c1.735,0,2.581-0.667,2.581-1.913
		c0-1.335-0.891-2.002-2.625-2.002H196.441z"/>
	<path fill="#FEFFFE" d="M230.218,130.783v-29.767h9.211v29.767H230.218z"/>
	<path fill="#FEFFFE" d="M244.992,106.133c0-3.471,1.913-5.606,5.027-5.606c1.38,0,2.447,0.445,3.648,1.557l17.843,16.285v-17.353
		h8.81v24.695c0,3.426-1.913,5.606-5.027,5.606c-1.38,0-2.447-0.489-3.693-1.646l-17.753-16.196v17.309h-8.854V106.133z"/>
	<path fill="#FEFFFE" d="M302.75,130.783c-10.278,0-17.931-6.496-17.931-15.173c0-8.543,7.431-14.594,17.931-14.594h21.269
		l-5.962,7.742H302.75c-4.983,0-8.765,3.07-8.765,7.253c0,4.227,3.515,7.03,8.765,7.03h11.213v-3.96h-15.039l5.695-6.452h18.554
		v18.154H302.75z"/>
	<path fill="#FEFFFE" d="M356.596,130.783c-8.009,0-12.058-2.803-12.058-8.365c0-3.026,1.245-5.473,3.471-6.986
		c-1.914-1.468-2.893-3.426-2.893-5.962c0-5.295,4.316-8.454,11.657-8.454h12.459l-5.963,7.742h-6.852
		c-1.646,0-2.536,0.667-2.536,1.869c0,1.291,0.89,1.958,2.58,1.958h24.116l-5.116,6.541h-4.494v3.916h10.1l-5.917,7.742H356.596z
		 M363.448,119.125h-7.342c-1.602,0-2.402,0.667-2.402,1.958c0,1.29,0.801,1.958,2.402,1.958h7.342V119.125z"/>
	<path fill="#FEFFFE" d="M410.485,111.561h17.709v-10.545h9.166v29.767h-9.166v-11.479h-17.709v11.479h-9.211v-29.767h9.211V111.561
		z"/>
	<path fill="#FEFFFE" d="M452.226,112.584h23.537l-5.339,6.585h-18.198v3.871h25.317l-5.873,7.742h-28.655v-29.767h34.483
		l-5.962,7.742h-19.311V112.584z"/>
	<path fill="#FEFFFE" d="M490.494,130.783l5.518-7.742h12.814l-8.409-12.147l-14.105,19.889h-10.768l19.088-26.919
		c1.291-1.78,3.07-3.337,5.918-3.337c2.759,0,4.583,1.468,5.874,3.337l18.643,26.919H490.494z"/>
	<path fill="#FEFFFE" d="M528.098,130.783v-22.025H513.37l6.051-7.742h33.282l-6.051,7.742h-9.389v22.025H528.098z"/>
	<path fill="#FEFFFE" d="M555.866,130.783v-29.767h9.211v29.767H555.866z"/>
	<path fill="#FEFFFE" d="M570.641,106.133c0-3.471,1.913-5.606,5.027-5.606c1.38,0,2.447,0.445,3.648,1.557l17.843,16.285v-17.353
		h8.81v24.695c0,3.426-1.913,5.606-5.027,5.606c-1.38,0-2.447-0.489-3.693-1.646l-17.753-16.196v17.309h-8.854V106.133z"/>
	<path fill="#FEFFFE" d="M628.398,130.783c-10.278,0-17.931-6.496-17.931-15.173c0-8.543,7.431-14.594,17.931-14.594h21.269
		l-5.962,7.742h-15.307c-4.983,0-8.765,3.07-8.765,7.253c0,4.227,3.515,7.03,8.765,7.03h11.213v-3.96h-15.039l5.695-6.452h18.554
		v18.154H628.398z"/>
</g>
</svg>
